<svg width="132" height="100" viewBox="0 0 132 100" fill="none" xmlns="http://www.w3.org/2000/svg">
<path d="M22.4648 69.5859C20.2969 69.5859 18.3438 69.0488 16.6055 67.9746C14.8477 66.9004 13.4316 65.4551 12.3574 63.6387C11.3027 61.8223 10.7754 59.791 10.7754 57.5449V38.5312C10.7754 36.3438 11.3125 34.3516 12.3867 32.5547C13.4414 30.7383 14.8574 29.293 16.6348 28.2188C18.4121 27.125 20.3555 26.5781 22.4648 26.5781C24.6719 26.5781 26.6641 27.1055 28.4414 28.1602C30.2188 29.2344 31.625 30.6699 32.6602 32.4668C33.7148 34.2637 34.2422 36.2852 34.2422 38.5312V41.2852C34.2422 41.4414 34.1445 41.5195 33.9492 41.5195H27.2109C27.0547 41.5195 26.9766 41.4414 26.9766 41.2852V39C26.9766 37.4766 26.5469 36.2168 25.6875 35.2207C24.8281 34.2246 23.7539 33.7266 22.4648 33.7266C21.3125 33.7266 20.2871 34.2051 19.3887 35.1621C18.4902 36.1191 18.041 37.2422 18.041 38.5312V57.5449C18.041 58.8535 18.4805 59.9863 19.3594 60.9434C20.2383 61.8809 21.2734 62.3496 22.4648 62.3496C23.7539 62.3496 24.8281 61.8906 25.6875 60.9727C26.5469 60.0352 26.9766 58.8926 26.9766 57.5449V54.5859H22.7871C22.5723 54.5859 22.4648 54.4883 22.4648 54.293V47.584C22.4648 47.3887 22.5723 47.291 22.7871 47.291H34.0078C34.1641 47.291 34.2422 47.3887 34.2422 47.584V57.5449C34.2422 59.791 33.7148 61.8223 32.6602 63.6387C31.5859 65.4551 30.1699 66.9004 28.4121 67.9746C26.6543 69.0488 24.6719 69.5859 22.4648 69.5859ZM45.5215 69H38.7246C38.5684 69 38.4902 68.9023 38.4902 68.707L38.6074 27.4863C38.6074 27.3301 38.6855 27.252 38.8418 27.252H50.9707C53.1387 27.252 55.1309 27.7793 56.9473 28.834C58.7637 29.8887 60.209 31.3047 61.2832 33.082C62.377 34.8594 62.9238 36.8711 62.9238 39.1172C62.9238 40.582 62.6992 41.9102 62.25 43.1016C61.8008 44.293 61.2734 45.2988 60.668 46.1191C60.082 46.9395 59.5449 47.5449 59.0566 47.9355C61.2246 50.3379 62.3086 53.1602 62.3086 56.4023L62.3672 68.707C62.3672 68.9023 62.2695 69 62.0742 69H55.2773C55.1211 69 55.043 68.9414 55.043 68.8242V56.4023C55.043 54.957 54.5352 53.707 53.5195 52.6523C52.5039 51.5977 51.2539 51.0703 49.7695 51.0703H45.8145L45.7559 68.707C45.7559 68.9023 45.6777 69 45.5215 69ZM50.9707 34.4297H45.8145V43.8633H50.9707C52.2012 43.8633 53.2949 43.4043 54.252 42.4863C55.2285 41.5684 55.7168 40.4453 55.7168 39.1172C55.7168 37.8477 55.248 36.7539 54.3105 35.8359C53.373 34.8984 52.2598 34.4297 50.9707 34.4297ZM65.4141 68.707L72.8555 27.4863C72.8945 27.3301 72.9922 27.252 73.1484 27.252H81.8496C82.0059 27.252 82.1035 27.3301 82.1426 27.4863L89.291 68.707C89.3105 68.9023 89.2324 69 89.0566 69H82.4062C82.2109 69 82.1035 68.9023 82.084 68.707L81.4395 64.3125H73.2656L72.6211 68.707C72.6016 68.9023 72.5039 69 72.3281 69H65.6484C65.4922 69 65.4141 68.9023 65.4141 68.707ZM77.1621 41.0508L74.4668 57.8965H80.2383L77.7773 41.0508L77.4258 38.8242L77.1621 41.0508ZM100.072 69H93.2754C93.1191 69 93.041 68.9023 93.041 68.707L93.1582 27.4863C93.1582 27.3301 93.2363 27.252 93.3926 27.252H100.717C100.873 27.252 101.01 27.3301 101.127 27.4863L106.605 35.3965L112.055 27.4863C112.172 27.3301 112.318 27.252 112.494 27.252H119.848C120.023 27.252 120.111 27.3301 120.111 27.4863L120.229 68.707C120.229 68.9023 120.15 69 119.994 69H113.197C113.041 69 112.963 68.9023 112.963 68.707L112.904 38.0918L106.605 47.2324L100.365 38.0918L100.307 68.707C100.307 68.9023 100.229 69 100.072 69Z" fill="#088C6F"/>
<path d="M40.8105 33H38.7891C38.7305 33 38.7012 32.9707 38.7012 32.9121L38.7363 20.5459C38.7363 20.499 38.7598 20.4756 38.8066 20.4756H42.2695C43.3711 20.4756 44.2412 20.8125 44.8799 21.4863C45.5244 22.1543 45.8467 23.0654 45.8467 24.2197C45.8467 25.0635 45.6797 25.7988 45.3457 26.4258C45.0059 27.0469 44.5664 27.5273 44.0273 27.8672C43.4883 28.207 42.9023 28.377 42.2695 28.377H40.8984V32.9121C40.8984 32.9707 40.8691 33 40.8105 33ZM42.2695 22.6113L40.8984 22.6289V26.1973H42.2695C42.6504 26.1973 42.9814 26.0156 43.2627 25.6523C43.5439 25.2832 43.6846 24.8057 43.6846 24.2197C43.6846 23.751 43.5586 23.3672 43.3066 23.0684C43.0547 22.7637 42.709 22.6113 42.2695 22.6113ZM49.1777 33H47.1387C47.0918 33 47.0684 32.9707 47.0684 32.9121L47.1035 20.5459C47.1035 20.499 47.127 20.4756 47.1738 20.4756H50.8125C51.4629 20.4756 52.0605 20.6338 52.6055 20.9502C53.1504 21.2666 53.584 21.6914 53.9062 22.2246C54.2344 22.7578 54.3984 23.3613 54.3984 24.0352C54.3984 24.4746 54.3311 24.873 54.1963 25.2305C54.0615 25.5879 53.9033 25.8896 53.7217 26.1357C53.5459 26.3818 53.3848 26.5635 53.2383 26.6807C53.8887 27.4014 54.2139 28.248 54.2139 29.2207L54.2314 32.9121C54.2314 32.9707 54.2021 33 54.1436 33H52.1045C52.0576 33 52.0342 32.9824 52.0342 32.9473V29.2207C52.0342 28.7871 51.8818 28.4121 51.5771 28.0957C51.2725 27.7793 50.8975 27.6211 50.4521 27.6211H49.2656L49.248 32.9121C49.248 32.9707 49.2246 33 49.1777 33ZM50.8125 22.6289H49.2656V25.459H50.8125C51.1816 25.459 51.5098 25.3213 51.7969 25.0459C52.0898 24.7705 52.2363 24.4336 52.2363 24.0352C52.2363 23.6543 52.0957 23.3262 51.8145 23.0508C51.5332 22.7695 51.1992 22.6289 50.8125 22.6289ZM59.083 33.1758C58.4443 33.1758 57.8555 33.0117 57.3164 32.6836C56.7832 32.3555 56.3525 31.9189 56.0244 31.374C55.7021 30.8232 55.541 30.2197 55.541 29.5635L55.5586 23.8594C55.5586 23.1914 55.7197 22.5908 56.042 22.0576C56.3584 21.5186 56.7861 21.0879 57.3252 20.7656C57.8643 20.4375 58.4502 20.2734 59.083 20.2734C59.7393 20.2734 60.3281 20.4346 60.8496 20.7568C61.377 21.0791 61.7988 21.5127 62.1152 22.0576C62.4375 22.5967 62.5986 23.1973 62.5986 23.8594L62.6162 29.5635C62.6162 30.2197 62.458 30.8203 62.1416 31.3652C61.8193 31.916 61.3916 32.3555 60.8584 32.6836C60.3252 33.0117 59.7334 33.1758 59.083 33.1758ZM59.083 31.0049C59.4463 31.0049 59.7627 30.8584 60.0322 30.5654C60.3018 30.2666 60.4365 29.9326 60.4365 29.5635L60.4189 23.8594C60.4189 23.4609 60.293 23.124 60.041 22.8486C59.7891 22.5732 59.4697 22.4355 59.083 22.4355C58.7139 22.4355 58.3975 22.5703 58.1338 22.8398C57.8701 23.1094 57.7383 23.4492 57.7383 23.8594V29.5635C57.7383 29.9561 57.8701 30.2959 58.1338 30.583C58.3975 30.8643 58.7139 31.0049 59.083 31.0049ZM66.9316 33.1758C66.2695 33.1758 65.6689 33.0176 65.1299 32.7012C64.5967 32.3848 64.1748 31.9482 63.8643 31.3916C63.5596 30.8291 63.4072 30.2021 63.4072 29.5107V28.6758C63.4072 28.6289 63.4307 28.6055 63.4775 28.6055H65.5166C65.5635 28.6055 65.5869 28.6377 65.5869 28.7021V29.5107C65.5869 29.9502 65.7129 30.3105 65.9648 30.5918C66.2168 30.8672 66.5391 31.0049 66.9316 31.0049C67.2949 31.0049 67.6084 30.8555 67.8721 30.5566C68.1357 30.252 68.2676 29.9033 68.2676 29.5107V20.5635C68.2676 20.5166 68.291 20.4932 68.3379 20.4932H70.3594C70.4062 20.4932 70.4297 20.5225 70.4297 20.5811L70.4473 29.5107C70.4473 30.167 70.2891 30.7734 69.9727 31.3301C69.6504 31.8926 69.2256 32.3408 68.6982 32.6748C68.1709 33.0088 67.582 33.1758 66.9316 33.1758ZM77.6895 33H71.8711C71.8242 33 71.8008 32.9707 71.8008 32.9121L71.8184 20.5459C71.8184 20.499 71.8418 20.4756 71.8887 20.4756H77.6719C77.7188 20.4756 77.7422 20.5049 77.7422 20.5635V22.5762C77.7422 22.623 77.7188 22.6465 77.6719 22.6465H73.9805V25.459H77.6719C77.7188 25.459 77.7422 25.4824 77.7422 25.5293L77.7598 27.5684C77.7598 27.6152 77.7363 27.6387 77.6895 27.6387H73.9805V30.7852H77.6895C77.7363 30.7852 77.7598 30.8145 77.7598 30.873V32.9297C77.7598 32.9766 77.7363 33 77.6895 33ZM82.6729 33.1758C82.0225 33.1758 81.4277 33.0117 80.8887 32.6836C80.3555 32.3555 79.9307 31.916 79.6143 31.3652C79.3037 30.8086 79.1484 30.1904 79.1484 29.5107L79.166 23.8945C79.166 23.2266 79.3184 22.623 79.623 22.084C79.9277 21.5391 80.3467 21.1025 80.8799 20.7744C81.4189 20.4404 82.0166 20.2734 82.6729 20.2734C83.3408 20.2734 83.9355 20.4346 84.457 20.7568C84.9844 21.0791 85.4033 21.5156 85.7139 22.0664C86.0303 22.6113 86.1885 23.2207 86.1885 23.8945V24.7207C86.1885 24.7676 86.165 24.791 86.1182 24.791H84.0967C84.0498 24.791 84.0264 24.7676 84.0264 24.7207V23.8945C84.0264 23.4961 83.8975 23.1533 83.6396 22.8662C83.3818 22.5791 83.0596 22.4355 82.6729 22.4355C82.2451 22.4355 81.917 22.582 81.6885 22.875C81.46 23.168 81.3457 23.5078 81.3457 23.8945V29.5107C81.3457 29.9502 81.4746 30.3105 81.7324 30.5918C81.9902 30.8672 82.3037 31.0049 82.6729 31.0049C83.0596 31.0049 83.3818 30.8525 83.6396 30.5479C83.8975 30.2373 84.0264 29.8916 84.0264 29.5107V28.6758C84.0264 28.6289 84.0498 28.6055 84.0967 28.6055H86.1357C86.1826 28.6055 86.2061 28.6289 86.2061 28.6758V29.5107C86.2061 30.1846 86.0479 30.7998 85.7314 31.3564C85.4092 31.9072 84.9844 32.3496 84.457 32.6836C83.9297 33.0117 83.335 33.1758 82.6729 33.1758ZM91.3564 33H89.3262C89.2734 33 89.2471 32.9707 89.2471 32.9121V22.6465H86.9092C86.8506 22.6465 86.8213 22.6172 86.8213 22.5586L86.8389 20.5459C86.8389 20.499 86.8623 20.4756 86.9092 20.4756H93.7471C93.8115 20.4756 93.8438 20.499 93.8438 20.5459V22.5586C93.8438 22.6172 93.8203 22.6465 93.7734 22.6465H91.4092L91.4268 32.9121C91.4268 32.9707 91.4033 33 91.3564 33Z" fill="white"/>
</svg>
